<svg width="14" height="14" viewBox="0 0 14 14" fill="none" xmlns="http://www.w3.org/2000/svg">
<path fill-rule="evenodd" clip-rule="evenodd" d="M3.75934 3.88894C3.54468 3.88894 3.37045 3.71472 3.37045 3.50005V2.59269H2.20379C1.84652 2.59269 1.55561 2.8835 1.55561 3.24077V4.92602H12.4445V3.24077C12.4445 2.8835 12.1536 2.59269 11.7963 2.59269H10.6296V3.50005C10.6296 3.71472 10.4554 3.88894 10.2407 3.88894C10.0261 3.88894 9.85186 3.71472 9.85186 3.50005V2.59269H4.14823V3.50005C4.14823 3.71472 3.97401 3.88894 3.75934 3.88894ZM9.85186 1.81491H4.14823V1.16672C4.14823 0.952054 3.97401 0.777832 3.75934 0.777832C3.54468 0.777832 3.37045 0.952054 3.37045 1.16672V1.81491H2.20379C1.41718 1.81491 0.777832 2.45417 0.777832 3.24077V5.31491V11.7963C0.777832 12.5829 1.41718 13.2223 2.20379 13.2223H11.7963C12.5829 13.2223 13.2223 12.5829 13.2223 11.7963V5.31491V3.24077C13.2223 2.45417 12.5829 1.81491 11.7963 1.81491H10.6296V1.16672C10.6296 0.952054 10.4554 0.777832 10.2407 0.777832C10.0261 0.777832 9.85186 0.952054 9.85186 1.16672V1.81491ZM1.55561 5.7038H12.4445V11.7963C12.4445 12.1536 12.1536 12.4445 11.7963 12.4445H2.20379C1.84652 12.4445 1.55561 12.1536 1.55561 11.7963V5.7038Z" fill="#CACACA"/>
<path d="M3.37045 2.59269H3.57045V2.39269H3.37045V2.59269ZM1.55561 4.92602H1.35561V5.12602H1.55561V4.92602ZM12.4445 4.92602V5.12602H12.6445V4.92602H12.4445ZM10.6296 2.59269V2.39269H10.4296V2.59269H10.6296ZM9.85186 2.59269H10.0519V2.39269H9.85186V2.59269ZM4.14823 2.59269V2.39269H3.94823V2.59269H4.14823ZM9.85186 1.81491V2.01491H10.0519V1.81491H9.85186ZM4.14823 1.81491H3.94823V2.01491H4.14823V1.81491ZM3.37045 1.81491V2.01491H3.57045V1.81491H3.37045ZM10.6296 1.81491H10.4296V2.01491H10.6296V1.81491ZM12.4445 5.7038H12.6445V5.5038H12.4445V5.7038ZM1.55561 5.7038V5.5038H1.35561V5.7038H1.55561ZM3.17045 3.50005C3.17045 3.82518 3.43422 4.08894 3.75934 4.08894V3.68894C3.65513 3.68894 3.57045 3.60426 3.57045 3.50005H3.17045ZM3.17045 2.59269V3.50005H3.57045V2.59269H3.17045ZM2.20379 2.79269H3.37045V2.39269H2.20379V2.79269ZM1.75561 3.24077C1.75561 2.994 1.95694 2.79269 2.20379 2.79269V2.39269C1.7361 2.39269 1.35561 2.77301 1.35561 3.24077H1.75561ZM1.75561 4.92602V3.24077H1.35561V4.92602H1.75561ZM12.4445 4.72602H1.55561V5.12602H12.4445V4.72602ZM12.2445 3.24077V4.92602H12.6445V3.24077H12.2445ZM11.7963 2.79269C12.0432 2.79269 12.2445 2.994 12.2445 3.24077H12.6445C12.6445 2.77301 12.264 2.39269 11.7963 2.39269V2.79269ZM10.6296 2.79269H11.7963V2.39269H10.6296V2.79269ZM10.4296 2.59269V3.50005H10.8296V2.59269H10.4296ZM10.4296 3.50005C10.4296 3.60426 10.345 3.68894 10.2407 3.68894V4.08894C10.5659 4.08894 10.8296 3.82518 10.8296 3.50005H10.4296ZM10.2407 3.68894C10.1365 3.68894 10.0519 3.60426 10.0519 3.50005H9.65186C9.65186 3.82518 9.91562 4.08894 10.2407 4.08894V3.68894ZM10.0519 3.50005V2.59269H9.65186V3.50005H10.0519ZM4.14823 2.79269H9.85186V2.39269H4.14823V2.79269ZM4.34823 3.50005V2.59269H3.94823V3.50005H4.34823ZM3.75934 4.08894C4.08447 4.08894 4.34823 3.82518 4.34823 3.50005H3.94823C3.94823 3.60426 3.86355 3.68894 3.75934 3.68894V4.08894ZM9.85186 1.61491H4.14823V2.01491H9.85186V1.61491ZM4.34823 1.81491V1.16672H3.94823V1.81491H4.34823ZM4.34823 1.16672C4.34823 0.841596 4.08447 0.577832 3.75934 0.577832V0.977832C3.86355 0.977832 3.94823 1.06251 3.94823 1.16672H4.34823ZM3.75934 0.577832C3.43422 0.577832 3.17045 0.841596 3.17045 1.16672H3.57045C3.57045 1.06251 3.65513 0.977832 3.75934 0.977832V0.577832ZM3.17045 1.16672V1.81491H3.57045V1.16672H3.17045ZM3.37045 1.61491H2.20379V2.01491H3.37045V1.61491ZM2.20379 1.61491C1.30674 1.61491 0.577832 2.34369 0.577832 3.24077H0.977832C0.977832 2.56464 1.52762 2.01491 2.20379 2.01491V1.61491ZM0.577832 3.24077V5.31491H0.977832V3.24077H0.577832ZM0.577832 5.31491V11.7963H0.977832V5.31491H0.577832ZM0.577832 11.7963C0.577832 12.6934 1.30673 13.4223 2.20379 13.4223V13.0223C1.52764 13.0223 0.977832 12.4725 0.977832 11.7963H0.577832ZM2.20379 13.4223H11.7963V13.0223H2.20379V13.4223ZM11.7963 13.4223C12.6934 13.4223 13.4223 12.6934 13.4223 11.7963H13.0223C13.0223 12.4725 12.4725 13.0223 11.7963 13.0223V13.4223ZM13.4223 11.7963V5.31491H13.0223V11.7963H13.4223ZM13.4223 5.31491V3.24077H13.0223V5.31491H13.4223ZM13.4223 3.24077C13.4223 2.34369 12.6934 1.61491 11.7963 1.61491V2.01491C12.4725 2.01491 13.0223 2.56464 13.0223 3.24077H13.4223ZM11.7963 1.61491H10.6296V2.01491H11.7963V1.61491ZM10.4296 1.16672V1.81491H10.8296V1.16672H10.4296ZM10.2407 0.977832C10.345 0.977832 10.4296 1.06251 10.4296 1.16672H10.8296C10.8296 0.841596 10.5659 0.577832 10.2407 0.577832V0.977832ZM10.0519 1.16672C10.0519 1.06251 10.1365 0.977832 10.2407 0.977832V0.577832C9.91562 0.577832 9.65186 0.841596 9.65186 1.16672H10.0519ZM10.0519 1.81491V1.16672H9.65186V1.81491H10.0519ZM12.4445 5.5038H1.55561V5.9038H12.4445V5.5038ZM12.6445 11.7963V5.7038H12.2445V11.7963H12.6445ZM11.7963 12.6445C12.264 12.6445 12.6445 12.2641 12.6445 11.7963H12.2445C12.2445 12.0431 12.0431 12.2445 11.7963 12.2445V12.6445ZM2.20379 12.6445H11.7963V12.2445H2.20379V12.6445ZM1.35561 11.7963C1.35561 12.2641 1.73606 12.6445 2.20379 12.6445V12.2445C1.95697 12.2445 1.75561 12.0431 1.75561 11.7963H1.35561ZM1.35561 5.7038V11.7963H1.75561V5.7038H1.35561Z" fill="#CACACA"/>
</svg>
