<svg width="18" height="14" viewBox="0 0 18 14" fill="none" xmlns="http://www.w3.org/2000/svg">
<path d="M17.3142 8.9025L15.6476 1.4025C15.6061 1.21745 15.5029 1.05202 15.355 0.93343C15.207 0.814838 15.023 0.750147 14.8334 0.75H12.3334V2.41667H14.1651L14.9659 6.02167C14.5266 5.84393 14.0573 5.75172 13.5834 5.75C11.9559 5.75 10.5809 6.79833 10.0634 8.25H7.93591C7.41841 6.79833 6.04342 5.75 4.41592 5.75C3.92675 5.75 3.46175 5.85083 3.03341 6.02167L3.83508 2.41667H5.66675V0.75H3.16675C2.97718 0.750033 2.79329 0.814698 2.64542 0.933325C2.49755 1.05195 2.39455 1.21745 2.35341 1.4025L0.686748 8.9025L0.725915 8.91167C0.690915 9.10594 0.671132 9.30265 0.666748 9.5C0.666748 11.5675 2.34925 13.25 4.41675 13.25C6.34175 13.25 7.91425 11.7867 8.12425 9.91667H9.87591C10.0859 11.7867 11.6584 13.25 13.5834 13.25C15.6509 13.25 17.3334 11.5675 17.3334 9.5C17.3334 9.29833 17.3051 9.10417 17.2743 8.91167L17.3142 8.9025ZM4.41675 11.5833C3.26841 11.5833 2.33341 10.6483 2.33341 9.5C2.33341 8.35167 3.26841 7.41667 4.41675 7.41667C5.56508 7.41667 6.50008 8.35167 6.50008 9.5C6.50008 10.6483 5.56508 11.5833 4.41675 11.5833ZM13.5834 11.5833C12.4342 11.5833 11.5001 10.6483 11.5001 9.5C11.5001 8.35167 12.4342 7.41667 13.5834 7.41667C14.7326 7.41667 15.6667 8.35167 15.6667 9.5C15.6667 10.6483 14.7326 11.5833 13.5834 11.5833Z" fill="#ACACAC"/>
</svg>
