<svg width="20" height="20" viewBox="0 0 20 20" fill="none" xmlns="http://www.w3.org/2000/svg">
<path d="M17.4999 4.99996H11.1749L13.9166 2.25829L13.3333 1.66663L9.99992 4.99996L6.66658 1.66663L6.07492 2.25829L8.82492 4.99996H2.49992C2.05789 4.99996 1.63397 5.17555 1.32141 5.48812C1.00885 5.80068 0.833252 6.2246 0.833252 6.66663V16.6666C0.833252 17.5833 1.58325 18.3333 2.49992 18.3333H17.4999C18.4166 18.3333 19.1666 17.5833 19.1666 16.6666V6.66663C19.1666 6.2246 18.991 5.80068 18.6784 5.48812C18.3659 5.17555 17.9419 4.99996 17.4999 4.99996ZM17.4999 16.6666H2.49992V6.66663H17.4999V16.6666ZM7.49992 8.33329V15L13.3333 11.6666L7.49992 8.33329Z" fill="white"/>
</svg>
