<svg width="24" height="24" viewBox="0 0 24 24" fill="none" xmlns="http://www.w3.org/2000/svg">
<path fill-rule="evenodd" clip-rule="evenodd" d="M2.625 5.25C2.52554 5.25 2.43016 5.28951 2.35984 5.35984C2.28951 5.43016 2.25 5.52554 2.25 5.625V18.375C2.25 18.582 2.418 18.75 2.625 18.75H21.375C21.4745 18.75 21.5698 18.7105 21.6402 18.6402C21.7105 18.5698 21.75 18.4745 21.75 18.375V5.625C21.75 5.52554 21.7105 5.43016 21.6402 5.35984C21.5698 5.28951 21.4745 5.25 21.375 5.25H2.625ZM0 5.625C0 4.176 1.176 3 2.625 3H21.375C22.824 3 24 4.176 24 5.625V18.375C24 19.0712 23.7234 19.7389 23.2312 20.2312C22.7389 20.7234 22.0712 21 21.375 21H2.625C1.92881 21 1.26113 20.7234 0.768845 20.2312C0.276562 19.7389 0 19.0712 0 18.375L0 5.625Z" fill="#999999"/>
<path d="M9 15.8385V8.16302C8.99978 8.0965 9.01725 8.03111 9.05063 7.97357C9.08402 7.91602 9.1321 7.8684 9.18997 7.83557C9.24783 7.80275 9.31339 7.7859 9.37991 7.78678C9.44643 7.78765 9.51152 7.8062 9.5685 7.84052L15.9645 11.679C16.0198 11.7124 16.0655 11.7595 16.0972 11.8157C16.129 11.872 16.1456 11.9355 16.1456 12C16.1456 12.0646 16.129 12.1281 16.0972 12.1843C16.0655 12.2406 16.0198 12.2876 15.9645 12.321L9.5685 16.1595C9.51163 16.1938 9.44667 16.2123 9.38028 16.2133C9.31389 16.2142 9.24844 16.1975 9.19062 16.1648C9.1328 16.1322 9.08469 16.0848 9.0512 16.0275C9.01771 15.9701 9.00004 15.9049 9 15.8385Z" fill="#999999"/>
</svg>
