<svg width="16" height="16" viewBox="0 0 16 16" fill="none" xmlns="http://www.w3.org/2000/svg">
<path d="M0.5 6.33328V9.66662C0.5 10.1249 0.875 10.4999 1.33333 10.4999H3.83333L6.575 13.2416C7.1 13.7666 8 13.3916 8 12.6499V3.34162C8 2.59995 7.1 2.22495 6.575 2.74995L3.83333 5.49995H1.33333C0.875 5.49995 0.5 5.87495 0.5 6.33328ZM11.75 7.99995C11.75 6.52495 10.9 5.25828 9.66667 4.64162V11.3499C10.9 10.7416 11.75 9.47495 11.75 7.99995ZM9.66667 1.70828V1.87495C9.66667 2.19162 9.875 2.46662 10.1667 2.58328C12.3167 3.44162 13.8333 5.54995 13.8333 7.99995C13.8333 10.4499 12.3167 12.5583 10.1667 13.4166C9.86667 13.5333 9.66667 13.8083 9.66667 14.1249V14.2916C9.66667 14.8166 10.1917 15.1833 10.675 14.9999C13.5 13.9249 15.5 11.1999 15.5 7.99995C15.5 4.79995 13.5 2.07495 10.675 0.999949C10.1917 0.808282 9.66667 1.18328 9.66667 1.70828Z" fill="#ACACAC"/>
</svg>
